<?xml version="1.0" standalone="no"?>
<!DOCTYPE svg PUBLIC "-//W3C//DTD SVG 1.1//EN"
"http://www.w3.org/Graphics/SVG/1.1/DTD/svg11.dtd">

<svg width="322" height="126" view_box="0 0 322 126"
xmlns="http://www.w3.org/2000/svg"
xmlns:link="http://www.w3.org/1999/xlink">\n\n<desc>Généré par Mocodo 2.3.7 le Mon, 05 Oct 2020 06:26:22</desc>

<rect id="frame" x="0" y="0" width="322" height="126" fill="none" stroke="none" stroke-width="0"/>

<!-- Association HABITE -->
<line x1="45" y1="63" x2="151" y2="63" stroke="#000000" stroke-width="1.5"/>
<text x="87" y="80.0" fill="#000000" font-family="Arial" font-size="12">1,1</text>
<line x1="267" y1="63" x2="151" y2="63" stroke="#000000" stroke-width="1.5"/>
<text x="194" y="80.0" fill="#000000" font-family="Arial" font-size="12">0,N</text>
<g id="association-HABITE">
	<path d="M 174 35 a 14 14 90 0 1 14 14 V 62 h -74 V 49 a 14 14 90 0 1 14 -14" fill="#FFFFFF" stroke="#FFFFFF" stroke-width="0"/>
	<path d="M 188 62.0 v 15 a 14 14 90 0 1 -14 14 H 128 a 14 14 90 0 1 -14 -14 V 62.0 H 74" fill="#FFFFFF" stroke="#FFFFFF" stroke-width="0"/>
	<rect x="114" y="35" width="74" height="56" fill="none" rx="14" stroke="#000000" stroke-width="3"/>
	<line x1="114" y1="62" x2="188" y2="62" stroke="#000000" stroke-width="1.5"/>
	<text x="123" y="55.3" fill="#000000" font-family="Arial Black" font-size="13">HABITE</text>
</g>

<!-- Entity VILLE -->
<g id="entity-VILLE">
	<g id="frame-VILLE">
		<rect x="221" y="27" width="92" height="28" fill="#FFFFFF" stroke="#FFFFFF" stroke-width="0"/>
		<rect x="221" y="55.0" width="92" height="44" fill="#FFFFFF" stroke="#FFFFFF" stroke-width="0"/>
		<rect x="221" y="27" width="92" height="72" fill="none" stroke="#000000" stroke-width="3"/>
		<line x1="221" y1="55" x2="313" y2="55" stroke="#000000" stroke-width="1.5"/>
	</g>
	<text x="245" y="47.3" fill="#000000" font-family="Arial Black" font-size="13">VILLE</text>
	<text x="229" y="71.2" fill="#000000" font-family="Arial" font-size="14">code postal</text>
	<line x1="229" y1="74" x2="305" y2="74" stroke="#000000" stroke-width="1.2"/>
	<text x="229" y="89.2" fill="#000000" font-family="Arial" font-size="14">libelle_ville</text>
</g>

<!-- Entity ELEVE -->
<g id="entity-ELEVE">
	<g id="frame-ELEVE">
		<rect x="9" y="9" width="72" height="28" fill="#FFFFFF" stroke="#FFFFFF" stroke-width="0"/>
		<rect x="9" y="37.0" width="72" height="80" fill="#FFFFFF" stroke="#FFFFFF" stroke-width="0"/>
		<rect x="9" y="9" width="72" height="108" fill="none" stroke="#000000" stroke-width="3"/>
		<line x1="9" y1="37" x2="81" y2="37" stroke="#000000" stroke-width="1.5"/>
	</g>
	<text x="21" y="29.3" fill="#000000" font-family="Arial Black" font-size="13">ELEVE</text>
	<text x="17" y="53.2" fill="#000000" font-family="Arial" font-size="14">Id_eleve</text>
	<line x1="17" y1="56" x2="73" y2="56" stroke="#000000" stroke-width="1.2"/>
	<text x="17" y="71.2" fill="#000000" font-family="Arial" font-size="14">nom</text>
	<text x="17" y="89.2" fill="#000000" font-family="Arial" font-size="14">prenom</text>
	<text x="17" y="107.2" fill="#000000" font-family="Arial" font-size="14">status</text>
</g>
</svg>